<svg xmlns="http://www.w3.org/2000/svg" width="1920pt" height="1080pt" viewBox="0 0 1920 1080"><clipPath id="a"><path d="M0 0h1920v1080H0Z"/></clipPath><g clip-path="url(#a)"><path d="m1603.117 209.04-145.266-35.594-2.602 13.405-15.524-1.32c-6.404-.548-12.602-.826-18.42-.826-25.549 0-46.979 5.187-67.38 16.474l14.125-51.352-53.945-1.566 4.692-110.865-61.502-2.46 1.578-10.438-96.32 7.163-1.984 11.37-3.952-10.92-75.809 5.63-1.984 11.355-3.95-10.934-74.718 5.561-6.81-19.955-118.896 5.505-3.83 21.187c-13.548-14.123-31.24-21.687-52.583-22.453l-81.139-3.128-6.656 24.471a55.002 55.002 0 0 0-3.78-3.383c-10.182-8.216-22.032-12.38-35.222-12.38-2.054 0-4.162.103-6.268.31l-93.115 9.091-10.36 83.19 16.633 16.633 2.841 29.102-121.62-20.072-1.292 14.74-17.066.335c-39.796.783-69.742 12.682-100.06 39.72-30.082 26.63-44.89 62.734-44.014 107.314.813 41.346 16.27 75.576 44.835 99.602l-31.027 158.802 55.041 68.307s58.132 36.513 127.314 36.513c69.181 0 120.587-23.54 152.776-83.595v62.19c-6.72 39.594 1.64 69.156 12.638 89.52l-11.668-1.05v18.922c0 88.716 40.626 121.083 64.843 132.481l18.292 8.608 24.175 9.091-10.057 34.421 110.493 26.718 78.912 81.752 78.251-81.984 110.415-26.992-9.986-33.944 24.273-9.127 18.324-8.763c24.041-11.499 64.372-43.973 64.372-132.26v-18.923l-11.668 1.05c10.347-19.158 18.363-46.453 13.682-82.586l.002.002h73.406s35.312 12.308 72.424 12.308c37.114 0 88.4-11.29 122.03-56.932 33.63-45.64 51.905-75.299 51.905-75.299h-.018c12.922-19.792 20.59-43.153 22.87-69.919 3.455-40.678-8.56-74.962-35.783-102.04Z"/><path fill="#fbe063" d="m983.1 770.07-.055.03-14.794 8.53-14.715 8.48h-.005l-.014.01-14.746 8.5v-51l14.736 8.48 14.744-8.5v16.965Z"/><path fill="#fbe063" d="M953.513 541.148V770.11l198.62-114.48-116.608-28.58Z"/><path fill="#fcb538" d="m983.105 770.075-.05.03-14.804 8.525v16.97l-14.734-8.48-7.788-4.482-.094-.053-6.863-3.95-14.794-8.515 14.794-8.525v-.005l14.72-8.48.015-.01 14.744-8.5v16.965l14.849 8.505Z"/><path fill="#fcb538" d="m1152.134 655.629-198.621 114.48 198.62 114.318-33.655-114.4Z"/><path fill="#c56348" d="m983.055 770.105-14.804 8.524V795.6l-14.735-8.48-14.745 8.5v-51l14.736 8.48 7.124 4.097.953.552 6.667 3.836 14.794 8.514Z"/><path fill="#c56348" d="M1152.134 884.427 953.513 770.11v229.044l82.38-86.312Z"/><path fill="#fcb538" d="M968.251 744.61v50.99l-14.735-8.48-14.745 8.5v-16.966l-14.853-8.51 14.853-8.555 14.721-8.48.014-.01Z"/><path fill="#fcb538" d="M953.513 999.153V770.11l-199.4 114.85 116.324 28.13Z"/><path fill="#fbe063" d="m983.105 770.075-.05.03-14.804 8.525-14.715 8.48h-.005l-.014.01-14.745 8.49v-16.956l-14.855-8.51 14.855-8.554v-16.91l14.72 8.43 7.139 4.087.953.551 6.667 3.817 14.849 8.505Z"/><path fill="#fbe063" d="m754.113 884.959 199.4-114.85-199.687-114.398 33.78 114.624Z"/><path fill="#fff" d="M968.251 744.6v50.94l-14.715-8.43h-.005l-7.802-4.471-.094-.054-6.864-3.93-14.853-8.51 14.853-8.555v-16.97l14.735 8.48Z"/><path fill="#fff" d="M953.513 541.148V770.11L753.827 655.711l116.2-28.334Z"/><path fill="#f5ee72" d="M1091.576 774.454c0 .378 0 .762-.005 1.14-.614 75.724-62.183 136.924-138.06 136.924-76.122 0-137.853-61.603-138.064-137.676v-.388c0-27.805 8.214-53.684 22.36-75.35 24.635-37.759 67.26-62.714 115.704-62.714 49.025 0 92.086 25.553 116.58 64.064 13.604 21.388 21.485 46.771 21.485 74"/><path d="M1091.576 766.179c0 .379 0 .762-.005 1.14-.614 75.724-62.183 136.925-138.06 136.925-76.122 0-137.853-61.603-138.064-137.676v-.39c0-27.803 8.214-53.682 22.36-75.35 24.635-37.758 67.26-62.713 115.704-62.713 49.025 0 92.086 25.554 116.58 64.065 13.604 21.388 21.485 46.77 21.485 73.999"/><path fill="#fdbb36" d="M1068.129 753.194a81.533 81.533 0 0 1-1.805 31.278C1053.53 834.538 1011.589 855 953.149 855c-58.18 1.381-101.272-18.84-113.791-73.277-1.965-8.54-2.503-17.363-1.5-26.07 6.662-57.768 55.738-102.62 115.29-102.62 58.706 0 107.23 43.585 114.98 100.161"/><path fill="#fdbb36" d="M999.958 872.201h-94.014c-6.879 0-12.456-5.576-12.456-12.456v-19.277h118.926v19.277c0 6.88-5.576 12.456-12.456 12.456"/><path d="m953.594 799.688-16.695 28.917h33.389ZM1039.996 787.678c0 19.246-15.004 34.848-33.513 34.848-18.508 0-33.513-15.602-33.513-34.848s15.005-34.848 33.513-34.848c18.51 0 33.513 15.602 33.513 34.848M935.602 787.678c0 19.246-15.004 34.848-33.513 34.848-18.508 0-33.513-15.602-33.513-34.848s15.005-34.848 33.513-34.848c18.509 0 33.513 15.602 33.513 34.848M945.427 763.098l-.225.225a7.864 7.864 0 0 1-11.121 0l-15.125-15.125a7.865 7.865 0 0 1 0-11.122l.224-.224a7.865 7.865 0 0 1 11.122 0l15.125 15.125a7.864 7.864 0 0 1 0 11.12M987.985 737.075l-.225-.224a7.864 7.864 0 0 0-11.12 0l-15.127 15.125a7.866 7.866 0 0 0 0 11.121l.225.225a7.864 7.864 0 0 0 11.121 0l15.126-15.125a7.865 7.865 0 0 0 0-11.122"/><path fill="#fff" d="M938.766 682.667c-7.995-12.628-30.002-13.036-49.155-.911-19.152 12.126-28.196 32.193-20.2 44.821 7.995 12.629 30.002 13.037 49.154.911 19.152-12.125 28.197-32.192 20.2-44.821M771.091 770.367l-32.054 109.625c-20.582-9.686-54.913-37.733-54.913-116.83l33.611 3.026s-60.044-42.057-26.895-138.076l43.988 19.256ZM1188.228 766.188l33.611-3.027c0 78.608-33.928 106.8-54.539 116.659l-32.284-109.799 36.061-122.623 44.046-19.286c33.15 96.019-26.895 138.077-26.895 138.077"/></g><clipPath id="b"><path d="M0 0h1920v1080H0Z"/></clipPath><g clip-path="url(#b)"><path fill="#fff" d="m669.444 149.651-6.636.952 2.691 27.554 10.362-1.315c11.08-1.082 16.155-6.415 15.22-15.999-.858-8.784-8.07-12.516-21.637-11.192m-8.195-52.439-3.417.34 1.835 18.791 5.214-.516c9.588-.936 14.08-4.535 13.468-10.8-.61-6.26-6.312-8.869-17.1-7.815m69.187 100.191c-7.493 8.478-17.458 13.323-29.895 14.538l-77.544 7.571-11.1-113.68-10.565 1.031 5.978-48.007 79.342-7.747c11.088-1.083 20.737 1.691 28.95 8.317 8.21 6.631 12.883 15.737 14.014 27.323 1.575 16.13-3.767 28.822-16.024 38.081 9.138 5.273 15.63 10.567 19.477 15.881 4.223 6.072 6.832 14.195 7.826 24.371 1.238 12.684-2.248 23.458-10.459 32.321M808.867 91.867l-12.027-.432-.957 26.65 12.027.432c11.476.412 17.373-3.705 17.683-12.354.327-9.116-5.25-13.884-16.726-14.296m5.281 114.73-19.987-48.418-1.71 47.64-48.264-1.812 4.088-113.91-11.085-.399 12.786-47.007 67.395 2.598c17.135.615 30.937 6.542 41.396 17.78 10.615 11.243 15.617 25.437 15.002 42.572-.807 22.487-10.223 39.151-28.242 49.994l24.036 53.13ZM946.62 97.101l-8.82 42.89 22.3-1.175Zm35.264 108.111-5.722-22.42-46.276 2.434-5.486 23.01-52.237 2.748L895.757 90.04l-14.825.603 8.086-44.729 92.154-4.267 54.859 160.717ZM1331.853 216.21l-88.351-3.084 4.78-112.94-11.083-.47 10.245-47.866 53.34 2.135-4.7 111.054 49.449 1.437ZM1238.53 43.354l-24.849 164.307-64.944 4.842-21.59-59.698-10.839 62.12-61.918 4.641-53.673-158.542 62.35-4.641 21.59 59.785 10.868-62.177 49.292-3.661 21.62 59.727 10.837-62.148Z"/><path fill="#ee312f" d="M580.196 549.486c-26.805 22.25-66.287 33.777-108.229 34.604-43.79.861-67.443-2.317-112.072-25.73l22.03-112.753 28.372 12.582c4.94 2.191 9.978 4.17 15.16 5.7 18.398 5.435 39.547 8.275 51.846 8.034 16.557-.327 24.72-6.372 24.49-18.148-.176-8.833-14.893-15.714-41.558-24.022-34.442-10.726-60.368-20.547-75.668-31.288-27.26-19.702-41-48.965-41.71-85.027-.724-36.787 11.03-65.918 35.272-87.376 22.788-20.323 45.846-32.469 83.375-33.208l17.661-.347c2.208-.044 5.427.082 9.668.361 4.234.287 6.563.865 12.84 1.475l1.08-12.347 105.187 17.361-30.48 112.931c-11.162-6.036-23.904-10.493-41.798-14.173-21.23-4.365-32.384-4.925-42.318-4.73-17.66.348-26.375 6.412-26.144 18.183.145 7.365 9.448 15.15 35.75 23.465 34.08 11.113 63.52 22.038 78.087 32.794 26.895 20.09 40.695 47.973 41.398 83.656.803 40.841-13.279 73.511-42.239 98.003"/><path fill="#ee312f" d="m840.374 251.634-106.655 3.963-2.162 12.972-127.194 5.405-17.656 85.036 70.815-2.676 8.817 201.933 85.877-3.749-8.795-201.43 72.091-2.726ZM1416.73 475.625c-11.819-1.01-28.509-7.582-45.603-14.644-4.813-1.988-9.455-4.381-13.952-7.005l-25.943-14.902-29.892 89.935-27.587-60.966c32.373-19.486 49.784-49.09 52.234-88.84 4.468 6.803 9.887 13.116 16.314 18.852 13.577 11.819 30.383 21.676 62.293 35.426 24.733 10.666 38.165 18.738 37.445 27.212-.98 11.329-9.426 16.287-25.309 14.932m-227.032-72.296-19.284-.577 1.296-57.507 19.286.577c24.76.548 36.925 10.666 36.493 30.353-.433 18.651-13.03 27.702-37.79 27.154M930.15 435.529l23.234-87.197 23.262 87.197Zm596.491-49.235c-12.856-11.79-34.418-24.443-65.953-38.54-24.387-10.608-32.516-19.024-31.91-26.086.951-11.33 9.166-14.903 26.116-13.462 9.541.807 16.085 2.105 35.37 10.089 17.035 7.062 30.756 14.7 40.845 21.62l38.31-112.421-91.292-22.368-2.276 11.73c-5.938-1.21-8.13-2.016-12.137-2.708-4.063-.692-7.12-1.153-9.253-1.326l-16.949-1.442c-36.06-3.084-60.13 3.546-83.997 20.755-25.426 18.132-39.607 44.852-42.635 80.193 0 .058 0 .144-.028.202-3.518-5.736-7.697-11.155-12.51-16.259-19.429-20.87-45.026-31.851-76.85-33.005l-125.075-4.813-23.723 87.226 18.333.75-5.016 139.776-60.447-234.555H852.61l-20.87 83.94h28.826l-60.534 222.247h101.005l12.482-42.577h81.923l8.157 42.577h79.848l90.57 3.343 2.883-87.226 34.561 88.524 106.915 4.18-8.474-18.709c32.947 20.64 53.99 27.442 90.397 34.678 39.664 7.87 79.3-3.631 107.232-22.283 30.238-20.552 47.044-50.444 50.387-89.676 2.912-34.274-7.495-62.408-31.275-84.373"/></g></svg>